<svg xmlns="http://www.w3.org/2000/svg" viewBox="0 0 500 375">
<metadata id="guide-params">{"distance_m": 3.85, "height_m": 1.5, "azimuth_deg": 135.0, "focal_equiv_mm": 26.0, "hfov_deg": 69.39, "vfov_deg": 54.88, "depression_deg": 15.56, "position_xyz": [2.722, 1.5, -2.722], "target_xyz": [-0.242, 0.438, -0.321], "out_px": [1000, 750], "corner": "lr", "label": "rear-left", "fill_w": 0.7891, "fill_h": 0.6292, "viewBox": [500, 375], "vehicle": "toyota-corolla-cross-xg10", "body_class": "cuv", "length_mm": 4460, "width_mm": 1825, "height_mm": 1620, "wheelbase_mm": 2640, "source": "3D Warehouse GLB render (INTERNAL VALIDATION ONLY)"}</metadata>
<g id="outline" fill="none" stroke="#fff" stroke-width="2.4" stroke-linejoin="round" stroke-linecap="round" vector-effect="non-scaling-stroke"><path d="M333.00 69.68 L327.18 71.18 L317.00 75.50 L303.02 75.48 L282.98 73.52 L251.50 72.00 L221.50 71.50 L194.52 72.02 L171.07 74.57 L155.68 79.18 L148.68 82.68 L132.39 92.89 L118.89 103.39 L104.80 116.30 L99.57 117.07 L96.00 118.50 L91.63 121.63 L89.30 124.80 L81.07 125.57 L62.70 130.70 L57.63 135.13 L55.07 139.57 L54.91 146.91 L52.91 148.41 L52.59 149.45 L54.07 163.93 L57.93 181.07 L58.07 184.43 L60.39 188.61 L65.00 192.50 L69.18 204.82 L74.18 213.32 L76.89 216.61 L82.18 220.32 L84.52 220.98 L88.93 220.93 L103.32 216.82 L108.61 213.11 L111.76 206.76 L114.43 206.57 L194.82 235.68 L222.93 248.07 L224.89 252.11 L227.93 254.07 L230.18 263.32 L235.50 275.50 L243.89 287.61 L254.68 297.32 L263.00 302.00 L268.07 303.93 L275.52 305.48 L280.98 305.48 L288.32 303.82 L293.50 301.50 L303.61 294.11 L312.59 286.09 L319.09 276.59 L368.98 276.48 L376.93 274.93 L388.82 270.82 L397.82 265.82 L408.11 258.61 L423.62 244.62 L436.32 228.32 L442.30 216.80 L444.93 209.43 L445.07 205.57 L446.43 201.43 L447.46 189.00 L445.32 181.18 L442.02 173.48 L444.07 156.07 L445.98 146.98 L446.43 132.57 L444.82 131.18 L429.39 125.11 L400.13 98.37 L399.70 95.70 L404.93 89.93 L404.80 88.20 L402.80 86.20 L375.57 82.43 L366.82 79.18 L361.43 78.07 L340.09 76.41 L339.07 74.93 L338.59 69.91 L333.25 69.57Z"/></g>
<g id="detail" fill="none" stroke="#fff" stroke-width="1.2" stroke-dasharray="5 4" stroke-linecap="round" vector-effect="non-scaling-stroke"><path d="M305.72 81.71 L265.64 78.83 L227.56 77.27 L246.91 77.84 L291.93 80.54 L247.84 78.00 L208.83 77.01 L194.75 77.23 L233.50 77.53 L219.64 77.16 L189.97 77.22 L175.19 78.25 L191.22 77.30"/><path d="M239.52 86.26 L203.42 84.91 L169.86 85.35 L154.60 87.37 L140.09 92.24 L149.42 88.48 L161.21 86.01 L176.15 84.95 L201.38 84.79 L244.78 86.70 L312.24 95.09"/><path d="M156.95 133.32 L167.57 134.47 L151.49 133.15 L276.46 135.91 L284.12 132.92 L293.16 126.73 L283.73 132.89 L278.42 135.35 L272.29 136.05 L264.19 135.87 L274.93 135.95 L279.62 135.24 L284.97 132.78 L291.09 128.97 L295.03 125.68 L295.70 124.26"/><path d="M389.55 157.23 L371.16 157.29 L389.23 156.91 L391.80 157.07 L386.87 157.48 L390.63 157.38 L392.67 156.88 L393.35 155.63 L392.67 155.14 L343.16 154.40 L383.80 155.57"/><path d="M175.40 133.84 L168.82 135.32 L165.53 138.58 L168.30 135.92 L171.71 134.66 L179.26 134.10 L248.88 135.60 L204.30 134.56"/><path d="M178.23 87.69 L174.00 97.54 L164.54 125.97 L164.17 128.64 L165.24 130.70 L167.61 131.67 L169.65 131.28 L170.63 129.41 L179.74 95.98 L169.73 131.56"/><path d="M111.10 194.93 L176.60 213.96 L186.00 217.34 L190.53 219.65 L182.31 215.84 L163.39 210.08"/><path d="M243.29 88.79 L215.07 87.27 L196.03 86.97 L236.83 88.57 L237.72 89.39 L236.17 95.97 L237.00 91.96 L235.51 96.74 L234.63 102.29"/><path d="M299.86 75.40 L280.43 73.53 L248.81 72.28 L284.11 74.39 L296.45 75.83 L305.04 77.78"/><path d="M247.21 210.98 L250.48 204.93 L253.48 201.12 L256.60 199.86 L268.95 201.44 L282.45 204.96 L290.05 208.86 L296.56 214.93 L304.72 231.31 L300.75 221.47 L305.53 233.43"/><path d="M251.82 91.55 L251.90 93.11 L252.68 91.93 L254.33 91.44 L263.73 93.17 L253.86 91.32 L251.99 91.71 L251.05 92.96 L252.71 112.63 L251.04 94.85 L251.88 91.59 L254.00 90.35 L261.99 91.65 L244.96 89.02"/><path d="M244.88 72.44 L203.45 72.19 L181.88 73.23 L165.30 76.18 L150.60 81.65"/><path d="M274.21 75.33 L229.20 73.67 L273.83 75.17"/><path d="M359.91 241.48 L378.07 230.17 L391.87 224.59 L386.69 226.18 L377.84 230.25 L352.89 245.80"/><path d="M175.96 132.28 L172.99 130.32 L172.12 126.77 L174.52 116.02 L181.21 93.89 L170.75 130.54"/><path d="M248.57 133.76 L177.87 132.30 L174.67 132.04 L177.88 129.09"/><path d="M381.10 167.39 L369.38 167.11 L378.52 167.30 L376.21 167.22 L380.33 166.54 L380.67 165.76 L377.17 165.07 L383.13 165.18 L385.67 163.92 L382.90 163.89 L392.28 162.21 L378.49 162.92 L389.67 162.55"/><path d="M292.07 92.29 L253.41 87.71 L291.67 92.57"/><path d="M395.27 174.29 L395.20 172.94 L393.12 174.99 L390.00 211.00 L390.76 197.71 L393.59 174.93"/><path d="M361.02 158.22 L333.00 157.31 L330.70 158.16 L330.21 159.12 L332.07 159.72 L347.92 160.84 L350.87 160.45 L352.62 159.01 L355.82 159.05 L338.33 158.14"/><path d="M407.49 155.29 L398.95 156.26 L410.31 155.09 L411.56 155.36 L409.86 156.22 L411.62 155.99 L411.60 156.43 L405.92 157.77 L414.06 156.90 L412.24 156.72 L411.95 155.31 L407.56 155.18 L398.42 156.73 L396.16 158.44 L395.86 156.44 L395.13 158.93 L394.52 157.34 L394.34 160.47"/><path d="M133.90 95.68 L123.24 103.59 L116.28 109.76 L133.55 96.49 L114.42 111.39"/><path d="M406.34 139.35 L390.57 139.08 L378.63 137.13 L385.31 138.55 L370.51 135.57 L355.87 131.54"/><path d="M283.18 103.39 L276.60 97.47 L272.29 95.07 L261.48 91.50 L273.63 95.76 L265.17 92.48 L250.61 89.51"/><path d="M299.82 218.93 L292.40 210.40 L290.29 208.77 L283.01 204.81 L271.21 201.57 L285.84 206.66 L291.93 210.15 L295.36 213.02"/><path d="M163.01 220.91 L161.81 216.59 L158.53 212.63 L150.77 208.90 L109.59 196.33"/><path d="M220.70 227.33 L222.40 220.01 L224.07 215.66 L229.45 206.94 L223.91 216.90 L220.61 229.27 L219.34 239.06 L218.86 240.35 L218.10 238.75"/><path d="M277.85 177.57 L266.60 175.66 L282.36 177.71 L265.90 175.80 L277.20 177.90"/><path d="M238.03 88.44 L207.80 87.14 L183.56 87.19"/><path d="M182.07 87.15 L165.69 87.93 L153.05 89.91 L164.00 88.30 L175.34 87.46"/><path d="M117.86 116.19 L115.78 126.13 L116.00 129.48 L119.72 130.54 L134.79 131.11 L116.60 130.53"/><path d="M329.90 158.45 L343.97 159.78 L333.79 158.88 L359.72 160.34"/><path d="M320.82 99.93 L318.17 97.96 L332.29 111.18 L350.70 127.09 L352.57 129.32"/><path d="M228.27 133.31 L178.40 132.32"/><path d="M320.15 237.19 L318.95 230.14 L320.58 234.59 L318.26 227.52 L312.34 214.11 L318.56 227.49"/><path d="M393.59 158.10 L371.43 158.48 L388.41 158.40 L392.37 158.05 L388.31 157.63"/><path d="M131.50 132.04 L118.19 131.84 L152.00 133.17"/><path d="M71.10 173.56 L69.68 173.36 L68.44 174.05 L66.66 178.72 L66.48 185.94 L67.40 193.24 L73.08 206.65 L76.76 211.15 L79.96 213.53"/><path d="M154.36 89.85 L141.44 93.77 L154.07 89.85 L173.88 87.52"/><path d="M379.63 171.56 L351.47 170.62 L369.88 171.60"/><path d="M387.35 155.63 L360.74 155.37 L380.13 154.99"/><path d="M317.07 100.33 L294.25 99.19 L317.00 100.37"/><path d="M380.36 169.37 L352.78 168.57 L370.76 169.44"/><path d="M161.77 208.70 L161.70 205.86 L161.57 206.99 L159.55 208.01 L154.05 207.22 L121.75 198.10"/><path d="M183.67 85.11 L166.83 85.81 L156.87 87.13 L147.90 89.48 L139.45 93.03"/><path d="M187.12 88.07 L180.27 114.59 L176.59 131.70"/><path d="M200.61 229.48 L188.03 221.18 L175.52 215.92 L169.48 214.59 L165.17 215.86 L163.69 220.51"/><path d="M409.31 150.32 L385.66 151.58 L387.93 150.95 L387.10 150.09 L372.29 142.48"/><path d="M128.65 101.37 L123.43 105.88 L132.22 99.53 L119.74 109.53 L116.85 114.88 L117.66 111.38"/><path d="M247.44 90.07 L251.93 133.19"/><path d="M230.58 131.66 L232.68 121.66 L231.66 128.13 L232.34 131.46 L234.95 133.07 L254.62 133.91"/><path d="M311.58 168.19 L328.31 155.58 L310.82 168.26"/><path d="M380.09 96.86 L369.86 99.26 L338.14 100.38"/><path d="M433.72 201.42 L426.92 207.26 L418.37 213.35 L408.27 219.15 L398.31 223.89"/><path d="M353.38 129.20 L343.49 122.06 L321.49 101.98"/><path d="M391.72 161.25 L371.14 161.66 L391.86 161.39"/><path d="M288.72 250.26 L287.09 248.07 L290.41 256.77 L292.48 266.85 L291.98 275.75 L289.34 284.43"/><path d="M319.87 245.02 L314.64 244.17 L310.09 239.42 L296.29 215.01"/><path d="M336.43 275.54 L324.55 272.38 L318.33 266.91 L318.52 261.33 L322.12 258.54 L331.22 258.11"/><path d="M134.93 97.77 L132.02 99.11 L126.20 103.32 L116.00 112.07 L109.05 119.12 L106.96 124.49"/><path d="M287.35 151.20 L269.59 150.18 L284.65 151.05 L278.18 150.98"/><path d="M371.21 168.21 L351.60 167.44 L371.20 168.36"/><path d="M182.56 108.41 L178.21 127.42 L182.55 108.42"/><path d="M232.81 107.92 L228.32 130.72 L231.65 115.39"/><path d="M333.66 174.45 L337.78 174.22 L355.84 175.60 L339.71 174.53"/><path d="M75.96 157.47 L72.86 156.28 L67.68 155.63 L64.62 156.30 L62.10 158.23 L60.37 161.60 L59.53 166.51 L60.25 181.14"/><path d="M96.88 184.55 L95.25 176.87 L95.34 180.08 L94.18 172.44 L92.59 153.52"/><path d="M205.71 229.78 L196.83 223.64 L210.33 232.47 L214.94 234.46 L217.04 234.75 L218.51 233.31 L218.62 234.44"/><path d="M163.35 143.66 L160.59 152.65 L159.38 163.59 L159.10 157.58 L159.15 168.15"/><path d="M373.41 175.70 L339.85 174.40 L337.82 174.47 L339.06 174.89"/><path d="M291.66 115.04 L295.77 121.65 L292.08 114.91 L286.95 108.69 L294.37 119.41"/><path d="M116.92 111.87 L111.25 117.41 L116.69 112.51 L118.15 112.57 L118.21 115.06 L115.56 125.99 L114.02 129.04 L112.38 129.78 L112.86 129.91"/><path d="M235.33 255.92 L235.22 245.74 L237.05 237.92 L238.35 235.08 L241.91 230.49 L249.26 225.27"/><path d="M407.46 158.46 L401.46 159.62 L409.05 157.97 L405.96 158.62 L408.10 157.72 L397.50 159.27 L396.36 156.30 L395.71 156.73 L395.64 158.65"/><path d="M434.22 165.69 L433.41 179.64 L428.30 184.77 L422.08 181.38 L418.01 176.10"/><path d="M241.53 71.99 L206.87 71.87"/><path d="M379.96 163.94 L362.89 163.71 L370.30 164.52 L379.98 164.09"/><path d="M161.93 189.05 L161.55 199.72 L162.10 188.53 L161.78 190.91 L161.40 186.12 L161.77 191.17"/><path d="M342.23 151.01 L376.31 151.70"/><path d="M218.41 85.57 L184.56 85.10"/><path d="M304.06 175.80 L293.67 188.43 L304.47 174.69"/><path d="M95.12 196.21 L88.00 175.79 L84.02 166.19"/><path d="M255.70 132.80 L272.47 133.00 L257.29 132.26"/><path d="M71.49 155.84 L69.74 155.55 L75.40 157.13 L78.59 159.07 L81.71 162.22 L86.97 171.37 L85.09 167.10"/><path d="M408.31 132.59 L410.89 131.11 L410.63 130.60 L411.70 131.04 L416.19 129.92 L419.90 128.17 L420.26 127.64 L419.81 127.54 L410.16 130.53 L404.51 133.37"/><path d="M340.28 171.44 L321.77 170.43 L334.05 171.65"/><path d="M439.15 216.90 L429.88 227.70 L417.52 238.49"/><path d="M240.03 89.73 L236.34 104.99 L239.86 90.54"/><path d="M393.45 158.93 L377.31 159.54 L391.58 159.35"/><path d="M334.55 156.01 L335.58 156.71 L339.41 157.12 L334.53 157.20 L331.50 157.96 L326.32 160.88 L317.14 167.58"/><path d="M332.45 258.24 L321.85 255.44 L317.22 251.58 L316.89 248.78 L314.92 251.29 L314.21 255.09 L313.19 252.12"/><path d="M384.71 173.30 L381.84 172.66 L381.50 170.79 L378.79 172.71 L378.81 170.65 L374.96 170.52 L378.80 170.01 L379.72 169.22 L378.75 168.40 L375.76 168.34 L379.82 167.95 L381.76 167.13"/><path d="M247.49 226.47 L255.16 225.31 L262.56 226.36 L266.59 227.99 L275.09 233.05"/><path d="M316.38 172.44 L330.63 173.56 L315.68 172.81"/><path d="M248.37 94.32 L249.88 109.00 L248.43 94.57"/><path d="M434.74 164.95 L437.04 163.22 L435.14 164.45 L430.66 164.55 L429.50 167.63 L432.12 164.28 L429.92 166.85 L430.09 165.42 L430.81 165.71 L430.64 166.61 L429.33 166.98 L431.01 166.22 L431.32 163.97"/><path d="M377.66 151.85 L391.31 152.03 L398.99 150.72 L391.63 151.40"/><path d="M251.47 164.92 L248.01 178.90 L250.27 169.12 L250.41 165.09"/><path d="M416.09 137.91 L404.60 139.12 L413.28 137.87 L420.63 135.95"/><path d="M252.92 199.13 L260.08 199.74 L246.57 198.98 L239.77 200.07"/><path d="M384.73 160.60 L371.22 160.64 L384.90 160.74"/><path d="M317.94 100.46 L291.08 99.18"/><path d="M176.32 92.82 L171.83 105.40 L176.16 93.39"/><path d="M92.46 151.06 L93.28 164.79 L91.78 152.59"/><path d="M346.31 99.87 L372.28 98.67"/><path d="M313.92 80.72 L303.42 75.67 L317.75 75.55"/><path d="M170.88 108.23 L166.85 120.44 L170.84 108.23"/><path d="M248.70 282.62 L244.56 277.76 L249.55 283.76 L258.18 290.31"/><path d="M87.28 191.25 L85.11 184.77 L81.41 177.47 L77.43 173.00 L74.11 170.92"/><path d="M380.19 155.70 L355.44 154.86"/><path d="M341.56 76.46 L356.90 77.67 L365.84 79.06"/><path d="M258.38 266.70 L255.62 279.43 L257.93 268.27"/><path d="M380.74 163.08 L371.26 162.88 L386.05 162.86"/><path d="M258.71 291.40 L258.46 290.81 L268.79 293.82 L272.75 294.03 L278.31 293.16 L275.22 293.85"/><path d="M257.67 283.76 L259.54 274.21 L257.38 288.32"/><path d="M410.95 156.15 L405.97 156.92 L408.13 156.15 L406.52 156.29 L401.44 157.49 L410.96 156.19"/><path d="M340.40 254.81 L349.42 248.24 L339.65 255.53"/><path d="M276.40 98.57 L267.23 94.11 L274.82 97.88 L278.39 100.71"/><path d="M243.31 276.13 L238.77 267.28 L234.77 255.02"/><path d="M367.42 157.28 L357.89 157.61 L357.48 158.38 L361.97 159.26 L354.22 158.95"/><path d="M254.25 252.40 L246.92 243.94 L254.42 252.32"/><path d="M161.93 183.06 L161.58 181.21 L161.48 183.33 L160.83 180.39 L162.34 188.14 L162.52 195.46"/><path d="M235.41 202.16 L233.33 203.28 L236.27 201.51 L229.04 207.89 L225.02 213.14"/><path d="M72.36 176.15 L75.46 181.11 L77.05 182.58 L76.74 183.73 L74.02 179.19 L71.89 174.19 L71.62 172.10"/><path d="M392.68 268.81 L382.54 273.06 L372.02 275.98"/><path d="M355.16 172.96 L376.93 173.43"/><path d="M291.99 154.17 L291.62 159.82 L291.95 155.41 L288.91 166.51"/><path d="M343.33 171.23 L347.59 163.46 L347.29 162.23 L345.04 161.14 L336.17 160.24"/><path d="M259.31 246.15 L249.54 227.10"/><path d="M364.91 163.87 L354.43 163.26 L364.94 163.84"/></g>
<g id="ground" fill="none" stroke="#fff" stroke-width="1.6" stroke-linecap="round" vector-effect="non-scaling-stroke"><path d="M287.21 303.23 L258.62 290.86"/><path d="M280.88 290.60 L263.58 303.52"/><path d="M97.18 221.04 L85.95 216.18"/><path d="M100.20 216.08 L82.38 221.15"/><path d="M272.50 296.86 L91.46 218.57"/></g>
</svg>
